<?xml version="1.0" encoding="UTF-8"?>
<svg viewBox="0 0 253.88892 348.81378" xmlns="http://www.w3.org/2000/svg">
 <defs>
  <clipPath id="a">
   <path d="m75.722 515.71h40.186v-28.064h-40.186v28.064z"/>
  </clipPath>
  <clipPath id="b">
   <path d="m35.93 360.54h48.604v-87.302h-48.604v87.302z"/>
  </clipPath>
  <clipPath id="c">
   <path d="m72.841 383.38h42.536v-55.817h-42.536v55.817z"/>
  </clipPath>
  <clipPath id="d">
   <path d="m74.638 488.32h15.729v-80.437h-15.729v80.437z"/>
  </clipPath>
  <clipPath id="e">
   <path d="m42.673 464.68h10.391v-33.474h-10.391v33.474z"/>
  </clipPath>
  <clipPath id="f">
   <path d="m18.631 406.95h25.201v-93.689h-25.201v93.689z"/>
  </clipPath>
 </defs>
 <g transform="translate(-196.5 -424.76)">
  <g transform="matrix(1.25 0 0 -1.25 360.49 638.5)">
   <path d="m0 0s22.463 6.692 26.286 13.861-9.493-75.439 29.662-80.969c0 0-64.072-8.399-52.602-36.597 0 0-29.154 22.463-83.159 3.825 0 0 16.157 26.357-35.414 39.224 0 0 35.415 2.831 27.292 61.137 0 0 6.688-6.216 20.549-2.39 0 0-15.856-21.053 25.826-35.69 0 0 37.717-3.946 41.56 37.599" stroke="#000" stroke-width="2.867"/>
  </g>
  <g transform="matrix(1.25 0 0 -1.25 329.13 608.32)">
   <path d="m0 0s-0.717-12.904 1.434-22.939 27.241 0 27.241 0-10.037-49.465-43.73-46.597-30.107 42.295-30.107 42.295 11.469-3.585 20.788 4.302c9.319 7.884 3.585 24.373 3.585 24.373s7.937-7.068 20.789-1.434" fill="#edcfb4"/>
  </g>
  <g transform="matrix(1.25 0 0 -1.25 329.13 608.32)">
   <path d="m0 0s-0.717-12.904 1.434-22.939 27.241 0 27.241 0-10.037-49.465-43.73-46.597-30.107 42.295-30.107 42.295 11.469-3.585 20.788 4.302c9.319 7.884 3.585 24.373 3.585 24.373s7.937-7.068 20.789-1.434z" fill="none" stroke="#000" stroke-width="2.867"/>
  </g>
  <g transform="matrix(1.25 0 0 -1.25 279.31 493.69)">
   <path d="m0,0c-3.87-6.855-4.043-19.247-4.489-26.769-.96-16.283.563-35.95 9.493-50.044 2.753-4.35 6.335-7.997 10.505-11.003 12.191-8.793 21.76-6.688 32.151,3.836 3.344,3.388 5.828,7.588 8.37,11.582 7.496,11.766 11.899,24.434 14.979,38.016 1.137,5.021 2.042,10.092 2.717,15.194 .448,3.392 3.281,13.934 1.635,16.821-.073.126-38.562,67.526-75.361,2.367" fill="#edcfb4"/>
  </g>
  <g transform="matrix(1.25 0 0 -1.25 279.31 493.69)">
   <path d="m0,0c-3.87-6.855-4.043-19.247-4.489-26.769-.96-16.283.563-35.95 9.493-50.044 2.753-4.35 6.335-7.997 10.505-11.003 12.191-8.793 21.76-6.688 32.151,3.836 3.344,3.388 5.828,7.588 8.37,11.582 7.496,11.766 11.899,24.434 14.979,38.016 1.137,5.021 2.042,10.092 2.717,15.194 .448,3.392 3.281,13.934 1.635,16.821-.073.126-38.562,67.526-75.361,2.367z" fill="none" stroke="#000" stroke-width="2.867"/>
  </g>
  <g transform="matrix(1.25 0 0 -1.25 376.04 513.54)">
   <path d="m0 0s6.76-4.732 10.815-10.814-8.787-20.953-8.787-20.953l-10.476-3.041s-6.082 21.63 8.448 34.808"/>
  </g>
  <g transform="matrix(1.25 0 0 -1.25 269.92 499.87)">
   <path d="m0 0s-7.325-3.795-12.153-9.286 5.93-21.934 5.93-21.934l9.982-4.402s8.899 20.632-3.759 35.622"/>
  </g>
  <g transform="matrix(1.25 0 0 -1.25 388.29 524.1)">
   <path d="m0 0s21.631 33.791-9.459 54.745-78.062 11.153-89.217-2.702c0 0-10.138-8.112-10.813-33.121 0 0-5.408 74.347 88.539 45.96 0 0 45.618-17.235 20.95-64.882"/>
  </g>
  <g transform="matrix(1.25 0 0 -1.25 388.74 523.28)">
   <path d="m0,0c5.116,6.861 6.387,18.854 7.367,27.006 2.199,18.3-8.604,32.287-23.871,41.382-9.86,5.87-21.513,10.529-33.142,10.431-9.487-.081-24.223-4.236-32.682-8.169-3.341-1.55-12.758-8.643-14.68-11.15-.002-.005-12.335-16.101-13.013-41.107 .516,18.962 6.189,40.155 23.097,51.017 9.55,6.136 20.812,8.897 32.078,8.875 5.526-.012 11.027-.515 16.479-1.417 5.756-.952 13.954-1.653 19.085-4.525 18.585-10.423 30.693-33.431 25.667-54.533-1.462-6.13-3.936-11.974-6.385-17.81"/>
  </g>
  <g transform="matrix(1.25 0 0 -1.25 255.84 510.69)">
   <path d="m0,0 .754.566c-4.143,7.348-.754,17.894-.754,17.894-.755-.753-4.992.095-4.992.095-3.112-8.95 4.618-18.555 4.618-18.555"/>
  </g>
  <g transform="matrix(1.25 0 0 -1.25 387.22 525.58)">
   <path d="m0,0c0,0 9.745,7.538 8.803,16.967 0,0-4.318.16-4.874,1.07 0,0 .839-11.045-4.899-17.224l.603-.729"/>
  </g>
  <g transform="matrix(1.25 0 0 -1.25 274.59 502.84)">
   <path d="m0 0s16.298 40.935 77.305-7.353c0 0 22.849 5.762-2.387 33.782 0 0 5.17 1.593 10.536-4.172 0 0-11.728 23.247-49.285 21.461 0 0-43.32-0.398-36.169-43.718"/>
  </g>
  <g transform="matrix(1.25 0 0 -1.25 336.63 524.5)">
   <path d="m0 0s10.898 3.863 20.77-0.634l1.089 2.974s-6.36 3.03-21.716-1.485l-0.143-0.855z"/>
  </g>
  <g transform="matrix(1.25 0 0 -1.25 357.52 536.41)">
   <path d="m0 0s-10.795-2.084-14.914 3.614c0 0 4.483-7.914 14.914-3.614"/>
  </g>
  <g transform="matrix(1.25 0 0 -1.25 265.79 504.25)">
   <path d="m0 0s9.291-10.647 3.719-30.414l-2.873 1.182s3.377 17.91-4.224 27.878l3.378 1.354z" fill="#970f00"/>
  </g>
  <g transform="matrix(1.25 0 0 -1.25 257.81 526.64)">
   <path d="m0 0 5.819-8.37s1.59 1.593 0.078 5.181l-6.056 3.504" fill="#970f00"/>
  </g>
  <g transform="matrix(1.25 0 0 -1.25 255.82 521.27)">
   <path d="m0 0s-2.076 4.943 3.821 10.362c0 0 1.997-1.832 1.518-3.428 0 0-3.186-0.797-5.339-6.934" fill="#970f00"/>
  </g>
  <g transform="matrix(1.25 0 0 -1.25 378.74 518.45)">
   <path d="m0 0s-10.686-9.252-7.916-29.604l3.011 0.772s-0.855 18.207 8.064 27.022l-3.159 1.81z" fill="#970f00"/>
  </g>
  <g transform="matrix(1.25 0 0 -1.25 383.53 541.75)">
   <path d="m0 0-6.923-7.477s-1.353 1.798 0.642 5.142l6.487 2.627" fill="#970f00"/>
  </g>
  <g transform="matrix(1.25 0 0 -1.25 386.25 536.7)">
   <path d="m0 0s2.741 4.606-2.344 10.793c0 0-2.229-1.535-1.98-3.182 0 0 3.047-1.232 4.324-7.611" fill="#970f00"/>
  </g>
  <g transform="matrix(1.25 0 0 -1.25 323.02 538.67)">
   <path d="m0 0s1.521-12.674 5.323-16.477c0 0-3.971-4.237-5.533-0.701 0 0 2.563-1.192 3.673 0.942 0 0-2.741 5.23-3.463 16.236"/>
  </g>
  <g transform="matrix(1.25 0 0 -1.25 291.66 563.07)">
   <path d="m0 0s25.598-15.461 35.736-4.817c-5.459-5.732-5.294-20.542-14.448-22.022-5.71-0.924-9.745 4.305-12.839 8.307-4.212 5.445-7.199 11.738-8.449 18.532" fill="#ba0000"/>
  </g>
  <g transform="matrix(1.25 0 0 -1.25 304.86 594.43)">
   <path d="m0 0s7.772-8.109 12.335-4.222c0 0-2.195-10.982-13.179 4.055" fill="#e7b98a"/>
  </g>
  <g transform="matrix(1.25 0 0 -1.25 287.1 475.01)">
   <path d="m0 0s17.58 29.126 57.199 8.398c0 0-2.362 1.314-8.923-2e-3 0 0 20.204-10.759 23.616-26.759 0 0-17.844 21.51-38.572 22.301 0 0 11.022-4.201 20.204-14.433 0 0-12.069 9.442-27.025 10.232 0 0 14.958-9.705 12.596-24.662 0 0-16.531 31.22-39.095 24.925" fill="#970f00"/>
  </g>
  <g transform="matrix(1.25 0 0 -1.25 302.22 586.23)">
   <path d="m0 0s12.536 13.878 20.755-0.58c0 0-6.976-18.81-20.755 0.58" fill="#f90"/>
  </g>
  <g transform="matrix(1.25 0 0 -1.25 257.53 562.23)">
   <path d="m0,0c0,0 .021.078.054.229 .49,2.235 4.329,19.963 2.84,23.744-1.596,4.035 2.539,16.743 5.849,18.103s-.101.471-.101.471-8.709,12.377-23.458-8.955c0,0-7.913-13.487-3.208-33.926 0,0-22.47-69.695-27.329-77.828 0,0-9.461-27.686 12.498-43.507 0,0 30.209,5.004 27.84,47.996 0,0-.488,59.559 5.015,73.673" fill="#edcfb4"/>
  </g>
  <g transform="matrix(1.25 0 0 -1.25 257.53 562.23)">
   <path d="m0,0c0,0 .021.078.054.229 .49,2.235 4.329,19.963 2.84,23.744-1.596,4.035 2.539,16.743 5.849,18.103s-.101.471-.101.471-8.709,12.377-23.458-8.955c0,0-7.913-13.487-3.208-33.926 0,0-22.47-69.695-27.329-77.828 0,0-9.461-27.686 12.498-43.507 0,0 30.209,5.004 27.84,47.996 0,0-.488,59.559 5.015,73.673z" fill="none" stroke="#000" stroke-width="2.867"/>
  </g>
  <g transform="matrix(1.25 0 0 -1.25 389.36 570.3)">
   <path d="m0,0c0,0-.02.079-.054.23-.489,2.235-4.328,19.963-2.839,23.745 1.597,4.035-2.539,16.742-5.849,18.103s.1.471.1.471 8.709,12.377 23.458-8.956c0,0 7.913-13.486 3.209-33.925 0,0 22.47-69.696 27.329-77.828 0,0 9.462-27.687-12.499-43.508 0,0-30.209,5.005-27.839,47.996 0,0 .487,59.56-5.016,73.672" fill="#edcfb4"/>
  </g>
  <g transform="matrix(1.25 0 0 -1.25 389.36 570.3)">
   <path d="m0,0c0,0-.02.079-.054.23-.489,2.235-4.328,19.963-2.839,23.745 1.597,4.035-2.539,16.742-5.849,18.103s.1.471.1.471 8.709,12.377 23.458-8.956c0,0 7.913-13.486 3.209-33.925 0,0 22.47-69.696 27.329-77.828 0,0 9.462-27.687-12.499-43.508 0,0-30.209,5.005-27.839,47.996 0,0 .487,59.56-5.016,73.672z" fill="none" stroke="#000" stroke-width="2.867"/>
  </g>
  <g transform="matrix(1.25 0 0 -1.25 230.26 563.82)">
   <path d="m0 0s15.534-7.169 23.18-3.822c0 0 0-10.454-3.585-13.053 0 0-17.384-1.255-21.685 4.212 0 0-1.971 8.871 2.061 12.455"/>
  </g>
  <text x="351.70746" y="724.63025" font-size="15">
   <tspan x="351.70746" y="724.63025" fill="#fff" font-family="Myriad" font-size="44.276">V</tspan>
  </text>
  <g transform="matrix(1.25 0 0 -1.25 185.8 1096.8)">
   <g clip-path="url(#f)" opacity=".5">
    <g transform="translate(39.739 404.64)">
     <path d="m0,0c-10.37-21.539-18.037-44.563-20.748-68.354-.879-7.718-.495-17.032 5.116-23.024-4.225,4.511 5.235,17.238 6.268,21.59 2.002,8.434 3.928,16.885 5.77,25.359 1.847,8.46 3.655,16.936 5.131,25.471 .873,5.043 3.405,12.854 2.266,17.967-.7,3.137-1.162,5.057-3.803.991" fill="#fff"/>
    </g>
   </g>
  </g>
  <g transform="matrix(1.25 0 0 -1.25 185.8 1096.8)">
   <g clip-path="url(#e)" opacity=".5">
    <g transform="translate(51.43 464.68)">
     <path d="m0 0s-14.878-20.724-5.847-33.474c0 0 11.688 24.442 5.847 33.474" fill="#fff"/>
    </g>
   </g>
  </g>
  <g transform="matrix(1.25 0 0 -1.25 185.8 1096.8)">
   <g clip-path="url(#d)" opacity=".5">
    <g transform="translate(90.367 488.33)">
     <path d="m0 0s-16.994-64.573-7.365-80.438c0 0-14.726 20.96-5.099 73.074 0 0 4.534 5.668 12.464 7.364" fill="#fff"/>
    </g>
   </g>
  </g>
  <g transform="matrix(1.25 0 0 -1.25 311.21 520.03)">
   <path d="m0 0s-10.159 5.517-20.612 2.612l-0.614 3.112s6.755 1.999 21.221-4.853l5e-3 -0.871z"/>
  </g>
  <g transform="matrix(1.25 0 0 -1.25 288.2 526.3)">
   <path d="m0 0s9.78-5.023 15.331-0.705c0 0-6.522-6.343-15.331 0.705"/>
  </g>
  <g transform="matrix(1.25 0 0 -1.25 288.2 523.29)">
   <path d="m0 0s9.78 5.022 15.331 0.706c0 0-6.522 6.342-15.331-0.706"/>
  </g>
  <g transform="matrix(1.25 0 0 -1.25 185.8 1096.8)">
   <g clip-path="url(#c)" opacity=".5">
    <g transform="translate(101.52 383.38)">
     <path d="m0 0s-12.425-64.039 13.861-53.523c0 0-34.41-14.338-42.536 28.673 0 0 21.985-8.605 28.675 24.85" fill="#fff"/>
    </g>
   </g>
  </g>
  <g transform="matrix(1.25 0 0 -1.25 185.8 1096.8)">
   <g clip-path="url(#b)" opacity=".5">
    <g transform="translate(57.909 360.54)">
     <path d="m0 0s4.646-48.604-21.979-53.25c0 0 41.173-12.074 29.101-34.052 0 0 19.503 29.409 19.503 49.224l-0.621 0.308s-21.358 26.006-16.403 37.462l-9.601 0.308z" fill="#fff"/>
    </g>
   </g>
  </g>
  <g transform="matrix(1.25 0 0 -1.25 185.8 1096.8)">
   <g clip-path="url(#a)" opacity=".5">
    <g transform="translate(93.159 511.28)">
     <path d="m0 0s-17.871-8.121-17.429-23.632c0 0 10.786 7.384 18.465 6.645 0 0 3.104 21.271 21.713 21.42 0 0-12.853 0-22.749-4.433" fill="#fff"/>
    </g>
   </g>
  </g>
  <g transform="matrix(1.25 0 0 -1.25 294.57 528.96)">
   <path d="m0,0c0,0-1.434,2.957-.09,5.287 0,0 2.778-1.478 2.016,1.703 0,0 1.433.627 2.599.224 0,0 2.33-1.39.314-7.841 0,0-3.227-.583-4.839.627"/>
  </g>
 </g>
</svg>
