<?xml version="1.0" encoding="UTF-8"?>
<svg enable-background="new 0 0 129.971 409.835" viewBox="0 0 129.971 409.835" xmlns="http://www.w3.org/2000/svg">
 <path d="m47.294 347.41c-25.589 4.39 1.786 17.08 11.31 22.418-6.688 3.435-17.902 6.406-15.148 15.956 2.714 9.413 20.655 14.649 28.58 16.763 11.817 3.151 23.943 6.125 36.179 7.024 15.896 1.167 19.903-1.162 12.395-15.911-1.846-3.626-4.11-7.031-6.059-10.604-2.704-4.959 2.12-2.67 2.221-4.747 0.275-5.679 4.11-8.707-4.495-12.087-21.028-8.256-43.564-12.726-64.983-18.812" fill="#c2c2c2"/>
 <path d="m45.476 127.47c-14.619-1.722-41.113-15.166-45.039 5.25-3.991 20.751 28.571 20.784 41.809 23.227 1.084-9.49 2.215-18.981 3.23-28.477" fill="#664700"/>
 <path d="m45.476 127.47c-14.619-1.722-41.113-15.166-45.039 5.25-3.991 20.751 28.571 20.784 41.809 23.227 1.077-9.425 2.154-18.851 3.23-28.276" fill="none" stroke="#000" stroke-linecap="square" stroke-miterlimit="10" stroke-width=".2"/>
 <path d="m.841,131.708c-3.313,21.509 26.173,20.948 41,23.834l3.635-27.874c-6.191,10.074-31.082,3.5-36.556-4.645 1.05,2.198 1.212,3.919 1.816,6.059-1.341-1.894-3.196-2.73-4.442-4.04 1.394,2.214 1.034,3.407 1.616,5.655-2.719-3.815-4.907.019-6.665,3.637-.424-.891-.093-1.805-.404-2.626" fill="#402d00"/>
 <path d="m121.214,40.216c15.595-9.033 8.215-30.614-7.068-33.122-12.315-2.021-24.826-2.173-37.163-4.545-8.773-1.688-18.611-4.691-26.458.303-13.154,8.372-11.71,28.68 5.353,28.68 21.384,0 44.941,5.148 65.336,8.684" fill="#00a33d"/>
 <path d="m121.214,40.216c15.595-9.033 8.215-30.614-7.068-33.122-12.315-2.021-24.826-2.173-37.163-4.545-8.773-1.688-18.611-4.691-26.458.303-13.823,8.797-10.839,26.35 4.444,28.68 21.908,3.34 44.404,5.14 66.449,8.684" fill="none" stroke="#000" stroke-linecap="square" stroke-miterlimit="10" stroke-width=".2"/>
 <path d="m117.984,82.833c2.635-9.633 8.052-21.208 8.28-31.104 .383-16.591-12.995-17.059-26.661-19.187-16.04-2.498-37.628-7.889-52.511.605-16.254,9.277-15.154,22.164-15.149,38.98 .002,6.158-2.193,12.326-2.221,18.177-.007,1.59 2.255,11.255 2.221,11.31-2.215,3.523-16.142-1.312-11.31,11.108 6.077,15.619 84.482-24.042 97.551-29.889h-.2" fill="#00a33d"/>
 <path d="m117.984,82.833c2.635-9.633 8.052-21.208 8.28-31.104 .383-16.591-12.995-17.059-26.661-19.187-16.04-2.498-37.628-7.889-52.511.605-16.254,9.277-15.154,22.164-15.149,38.98 .002,6.158-2.193,12.326-2.221,18.177-.007,1.59 2.255,11.255 2.221,11.31-2.215,3.523-16.142-1.312-11.31,11.108 6.19,15.909 84.274-24.403 97.551-29.889" fill="none" stroke="#000" stroke-linecap="square" stroke-miterlimit="10" stroke-width=".2"/>
 <path d="m117.78 82.63c3.429-14.36 12.587-30.44 4.443-44.637 4.075 16.438-6.266 29.528-4.443 44.637" fill="#2ddb6d"/>
 <path d="m31.742,53.344c2.018-12.853 14.221-21.751 26.862-22.013-7.905.96-17.074-.803-16.964-10.706 5.807,4.558 15.474,5.24 18.783-2.625 5.007,6.263 16.801,3.502 24.033,4.444 9.729,1.267 27.838.481 35.749,5.452 6.106,3.837 2.811.497 3.435,7.475 .063.709-.532,8.354-.81,10.501-1.156,8.963-5.617,16.832-7.27,25.955-1.749,9.656-20.435,9.105-28.982,11.417-8.251,2.232-53.22,17.626-53.22,5.245 0-13.562 7.284-19.478 14.341-29.288 3.309-4.599 8.929-14.411 3.23-19.388-8.921-7.792-17.21,7.916-19.187,13.531" fill="#006b33"/>
 <path d="m41.64,20.423c-.24,10.028 8.97,11.878 16.964,10.907" fill="none" stroke="#000" stroke-linecap="square" stroke-miterlimit="10" stroke-width=".2"/>
 <path d="m73.955,31.331c-2.451,6.506-1.251,12.177-1.414,18.781-.109,4.455-3.274,14.018-.909,14.744 29.201,8.966 24.493-36.887 2.323-33.525" fill="#004520"/>
 <path d="m44.062,26.078c6.61,7.788 20.827,4.264 29.792,5.049 9.493.832 22.319,4.871 31.608,1.415-8.597-7.158-29.2-7.069-40.394-7.069-6.397,0-15.795,4.61-21.006.605"/>
 <path d="m44.062,26.078c6.61,7.788 20.827,4.264 29.792,5.049 9.493.832 22.319,4.871 31.608,1.415-8.173-6.805-28.269-7.167-38.98-7.069-6.59.061-16.789,4.495-22.42.809" fill="none" stroke="#000" stroke-linecap="square" stroke-miterlimit="10" stroke-width=".2"/>
 <path d="m51.333,49.508 65.641,4.039c-2.566,15.015-13.081,9.222-26.762,8.629l-40.697-1.763c.617-3.632 1.244-7.271 1.818-10.905" fill="#1f1f1f"/>
 <path d="m51.333 49.508 65.641 4.039c-2.566 15.015-13.081 9.222-26.762 8.629l-40.697-1.763 1.818-10.704" fill="none" stroke="#000" stroke-linecap="square" stroke-miterlimit="10" stroke-width=".2"/>
 <path d="m31.742 53.344c3.568-24.783 25.446-23.262 43.221-18.177 13.984 4 32.913 5.025 47.261 2.827-24.702-11.69-80.505-19.276-90.482 15.35"/>
 <path d="m31.742 53.344c3.568-24.783 25.446-23.262 43.221-18.177 13.984 4 32.913 5.025 47.261 2.827-23.507-11.125-81.876-19.894-90.281 15.35" fill="none" stroke="#000" stroke-linecap="square" stroke-miterlimit="10" stroke-width=".2"/>
 <path d="m54.768 25.674-13.331 55.946c6.309 1.113 18.364-55.13 13.331-55.946" fill="#8c8c8c"/>
 <path d="m54.768 25.674-13.331 55.946c6.309 1.113 18.364-55.13 13.331-55.946" fill="none" stroke="#000" stroke-linecap="square" stroke-miterlimit="10" stroke-width=".2"/>
 <path d="m55.373 26.281-12.927 54.329c6.293-6.49 14.892-45.379 12.927-54.329" fill="#fafafa"/>
 <path d="m121.619,29.311-13.329,56.146c6.546.736 18.016-55.281 13.329-56.146" fill="#8c8c8c"/>
 <path d="m121.619,29.311-13.329,56.146c6.875.773 17.505-55.415 13.329-55.944" fill="none" stroke="#000" stroke-linecap="square" stroke-miterlimit="10" stroke-width=".2"/>
 <path d="m122.02 30.117c-4.241 18.042-8.481 36.085-12.723 54.128 5.785-5.983 15.389-46.515 12.723-54.128" fill="#fafafa"/>
 <path d="m95.162,224.614c-2.032,9.85-7.137,19.75-11.816,28.58-6.29,11.87-7.761-.225-9.795-8.988-1.252-5.395-6.81-23.656.908-25.751 6.65-1.806 14.861,3.498 20.703,6.159" fill="#ffccb3"/>
 <path d="m95.162,224.614c-2.032,9.85-7.137,19.75-11.816,28.58-6.29,11.87-7.761-.225-9.795-8.988-1.252-5.395-6.81-23.656.908-25.751 6.65-1.806 14.861,3.498 20.703,6.159" fill="none" stroke="#000" stroke-linecap="square" stroke-miterlimit="10" stroke-width=".2"/>
 <path d="m93.343,227.241c-3.741,5.087-10.704,4.289-10.704,12.117 0,5.429.975,11.091-1.213,16.159-3.008-5.312-12.404-31.174-6.665-34.741 3.38-2.101 16.447,5.219 18.582,6.465" fill="#f2aa9d"/>
 <path d="m93.343,227.241c-4.856,5.05-12.724,1.862-12.724,10.905 0,5.872 1.713,11.552.807,17.371-3.008-5.312-12.404-31.174-6.665-34.741 3.38-2.101 16.447,5.219 18.582,6.465" fill="#d9828d"/>
 <path d="m59.209 257.54c-1.584 10.132-22.301 54.906-3.938 58.974 9.495 2.104 12.257-24.547 13.533-30.498 2.354-10.983-3.798-19.515-9.595-28.476" fill="#ffccb3"/>
 <path d="m59.209 257.54c-1.584 10.132-22.301 54.906-3.938 58.974 9.495 2.104 12.257-24.547 13.533-30.498 2.354-10.983-3.798-19.515-9.595-28.476" fill="none" stroke="#000" stroke-linecap="square" stroke-miterlimit="10" stroke-width=".2"/>
 <path d="m49.919,305.807c-.19,6.036 2.901,13.1 9.29,9.493 5.384-3.039 6.32-17.394 7.675-22.822 3.608-14.45.104-22.475-7.675-34.94 2.23,10.872 1.581,23.941-.403,34.838-.807,4.436-4.074,22.377-8.887,13.431" fill="#f2aa9d"/>
 <path d="m73.751,215.525c3.341,18.681 11.917,37.624 11.917,56.451 0,9.127-1.53,17.233-.605,26.559 .722,7.284 7.612,29.067-1.313,32.317-22.037,8.024-22.317-44.436-22.317-59.886 0-9.455-8.041-19.613-12.119-27.771-7.901-15.802-14.03-27.297 8.08-28.073 5.328-.186 11.413.393 16.357.403" fill="#ffccb3"/>
 <path d="m73.751,215.525c3.341,18.681 11.917,37.624 11.917,56.451 0,9.127-1.53,17.233-.605,26.559 .722,7.284 7.612,29.067-1.313,32.317-22.037,8.024-22.317-44.436-22.317-59.886 0-9.455-8.041-19.613-12.119-27.771-7.901-15.802-14.03-27.297 8.08-28.073 5.429-.19 10.973.222 16.359.604" fill="none" stroke="#000" stroke-linecap="square" stroke-miterlimit="10" stroke-width=".2"/>
 <path d="m67.896,215.93c2.888,13.026 9.948,25.562 11.814,38.678 .614,4.316 2.924,15.462 1.617,19.39-3.986,11.978-1.797,23.894-.303,36.254 .274,2.271 6.001,30.673-5.151,23.226-6.395-4.271-8.522-26.021-10.401-33.527-3.1-12.383-.63-23.523-1.515-35.949-1.042-14.645-18.143-23.755-21.005-38.072-1.723-8.626 19.198-10.515 24.944-10" fill="#f2aa9d"/>
 <path d="m19.624,120.801c-6.741,18.142-9.29,33.705-9.29,53.424 0,9.048.721,17.768-1.01,26.558-1.652,8.388-4.754,13.312-.809,21.004 1.684,3.283 11.57,14.585 14.947,9.495 1.416-2.134-8.371-12.672-3.434-14.946 1.751-.807 3.116,11.781 7.674,7.674-.006.006-1.622-11.037-1.818-12.118-3.364-18.538 1.211-33.563 2.828-52.108 .802-9.198 2.03-14.825 4.848-23.227 4.001-11.927-1.589-14.047-13.936-15.756" fill="#ffccb3"/>
 <path d="m19.624,120.801c-6.741,18.142-9.29,33.705-9.29,53.424 0,9.048.721,17.768-1.01,26.558-1.652,8.388-4.754,13.312-.809,21.004 1.684,3.283 11.57,14.585 14.947,9.495 1.416-2.134-8.371-12.672-3.434-14.946 1.751-.807 3.116,11.781 7.674,7.674-.006.006-1.622-11.037-1.818-12.118-3.364-18.538 1.211-33.563 2.828-52.108 .802-9.198 2.03-14.825 4.848-23.227 4.001-11.927-1.589-14.047-13.936-15.756" fill="none" stroke="#000" stroke-linecap="square" stroke-miterlimit="10" stroke-width=".2"/>
 <path d="m10.736,185.838c1.439,13.937-10.368,29.653 1.414,40.796 1.372,1.297 8.75,7.097 10.704,5.251 1.212-1.146-2.786-6.716-2.826-8.28-.208-8.059-1.898-5.563 2.02-5.049 6.653.873 2.222,9.94 4.04,1.01 1.288-6.331-2.524-13.965-3.03-20.197-.767-9.457 2.17-18.207 3.837-27.367 1.557-8.55.145-18.332 2.019-26.558 1.999-8.773 11.453-14.952 2.627-21.814-10.681-8.304-12.771,2.186-16.158,9.493 .703-.455 1.347-1.292 2.02-1.816-.918,12.5-5.947,24.613-6.262,37.767 .872-7.372 8.093-28.112 11.513-12.118 2.225,10.407-3.222,31.792-8.483,40.798-2.338-3.194-2.93-8.058-3.435-11.916" fill="#f2c2b6"/>
 <path d="m25.683,214.314c-.178-7.055-2.519-13.324-2.424-20.398 .104-7.833 2.533-14.989 3.838-22.623 1.252-7.324.828-14.925 2.02-22.217 1.158-7.083 4.061-12.265 6.665-19.187-3.631.462-7.255-.374-10.704-1.816 9.976,6.658 1.723,36.813-.202,46.453-1.748,8.754-7.172,17.544-9.09,24.842-1.02,3.88 1.753,11.172-.807,15.956-.267.498-6.134,4.938-5.655,3.03-.89,3.545 2.77,9.969 8.481,12.118 10.345,3.893 1.154-3.546 1.213-8.888 .05-4.549 2.771-10.74 6.463-4.039 .205-.933.408-2.232.202-3.231" fill="#d9828d"/>
 <path d="m120.205,130.497c4.346,12.375 2.729,22.917.605,35.546-2.616,15.562-2.353,31.229-4.039,46.654-.629,5.75-4.057,21.091-12.925,18.986-2.032-.482 5.305-8.014 4.645-13.937-1.02,3.204-2.703,10.939-5.858,6.262-3.657-5.421 2.321-17.141 3.435-22.217 3.093-14.098-2.137-29.885-2.424-44.433-.282-14.273-2.332-39.366 16.561-26.861" fill="#ffccb3"/>
 <path d="m120.2 130.5c4.346 12.375 2.729 22.917 0.605 35.546-2.616 15.562-2.353 31.229-4.039 46.654-0.629 5.75-4.057 21.091-12.925 18.986-2.032-0.482 5.305-8.014 4.645-13.937-1.02 3.204-2.703 10.939-5.858 6.262-3.657-5.421 2.321-17.141 3.435-22.217 2.943-13.418-14.743-91.403 14.341-71.094" fill="none" stroke="#000" stroke-linecap="square" stroke-miterlimit="10" stroke-width=".2"/>
 <path d="m115.964,217.747c1.68-15.307.959-30.765 3.434-46.25 2.305-14.422 4.878-26.515.605-40.798-.506,6.021 2.561,11.385 2.12,17.572-.701,9.862-3.345,19.879-4.745,29.69-1.974,13.836-2.651,26.025-1.414,39.786" fill="#f2c2b6"/>
 <path d="m110.107,229.059c-2.148,1.632-4.91,2.671-7.676,2.424 .067-.201 0-.269-.201-.201 5.185-2.835 7.507-8.35 6.261-14.138-8.398,20.707-3.233-9.199-1.615-16.564 2.712-12.346-15.895-90.928 13.128-69.881-5.239,5.289-10.696,6.814-9.693,16.158 1.697-2.3 4.527-4.682 6.059-6.868-1.397,7.369-4.553,14.576-4.948,22.116-.606,11.564 3.47,23.235 2.524,34.639-.656,7.921-.83,28.087-6.464,33.528 1.235-.179 2.371-1.002 2.625-1.213" fill="#d9828d"/>
 <path d="m73.751 223.6c-5.72 8.322-10.515 1.894-7.372 13.431 2.33 8.554 6.086 20.681 4.747 29.185-11.186-8.13-7.429-25.568-19.995-33.424-18.406-11.507 13.514-9.192 22.62-9.192" fill="#d9828d"/>
 <path d="m35.581 160.39c-4.029 18.252-2.625 33.337 1.816 51.299 1.045 4.226 1.366 14.382 5.049 14.947 9.903 1.521 24.788 4.369 32.921-3.231-1.032 9.719 18.399 8.714 22.824 3.029 3.527-4.531 3.934-26.264 4.24-32.315 0.22-4.34 3.014-22.629-1.01-24.641-17.463-8.731-46.529-7.436-65.84-9.088" fill="#bf0000"/>
 <path d="m35.581 160.39c-4.029 18.252-2.625 33.337 1.816 51.299 1.045 4.226 1.366 14.382 5.049 14.947 9.903 1.521 24.788 4.369 32.921-3.231-1.032 9.719 18.399 8.714 22.824 3.029 3.527-4.531 3.934-26.264 4.24-32.315 0.22-4.34 3.014-22.629-1.01-24.641-17.463-8.731-46.529-7.436-65.84-9.088" fill="none" stroke="#000" stroke-linecap="square" stroke-miterlimit="10" stroke-width=".2"/>
 <path d="m80.62,43.449c-.181,7.002-1.104,12.373-7.069,16.56-4.89,3.433-28.672,6.083-24.136,16.966 3.534,8.478 37.839-11.078 42.313-15.552 4.605-4.604-7.548-14.222-11.108-17.974"/>
 <path d="m80.62,43.449c-.181,7.002-1.104,12.373-7.069,16.56-4.89,3.433-28.672,6.083-24.136,16.966 3.534,8.478 37.839-11.078 42.313-15.552 4.605-4.604-7.548-14.222-11.108-17.974" fill="none" stroke="#000" stroke-linecap="square" stroke-miterlimit="10" stroke-width=".2"/>
 <path d="m66.683,64.452c-21.531,9.324-29.586,16.563-39.99,38.578-5.788,12.248-11.658,18.466.809,27.063 6.71,4.627 6.203.496 7.876,8.282 1.37,6.374-1.844,14.069-1.111,20.7 1.102,9.956 36.72,19.474 44.434,18.077 16.086-2.915 23.884-.061 27.165-18.077 1.239-6.804 1.011-12.753 1.011-19.589 0-9.506 1.899-7.268 9.896-6.262 9.066,1.14 7.431-25.178 7.877-33.022 1.165-20.492-10.548-24.498-23.732-37.667-7.486-7.477-25.848-.881-34.235,1.917" fill="#ffbf00"/>
 <path d="m66.683,64.452c-21.531,9.324-29.586,16.563-39.99,38.578-5.788,12.248-11.658,18.466.809,27.063 6.71,4.627 6.203.496 7.876,8.282 1.37,6.374-1.844,14.069-1.111,20.7 1.102,9.956 36.72,19.474 44.434,18.077 16.086-2.915 23.884-.061 27.165-18.077 1.239-6.804 1.011-12.753 1.011-19.589 0-9.506 1.899-7.268 9.896-6.262 9.188,1.155 7.222-23.81 7.776-31.608 1.262-17.742-7.302-29.142-22.723-38.173-10.55-6.179-23.511-3.556-34.94,1.213" fill="none" stroke="#000" stroke-linecap="square" stroke-miterlimit="10" stroke-width=".2"/>
 <path d="m113.541,82.833c4.121,4.119 4.096,11.417 4.544,17.267 .318,4.153-1.09,11.577 3.534,5.353-2.856,8.574-9.32,19.123-3.23,27.67-3.51-.622-7.021-1.229-10.503-1.816 .742-6.485 9.264-38.112-3.232-18.177 4.047-7.669 7.643-20.992-3.03-8.687 3.589-3.828 6.548-9.008 7.272-13.937-2.629,3.016-5.158,6.204-7.878,9.088 2.424-5.174 4.315-11.498 8.484-15.55-1.829.865-3.838.958-5.655,1.818 3.665-3.568 2.917-7.434-1.415-9.495 1.442-1.958 3.847-4.302 5.454-6.461 1.879,4.15 4.261,9.117 5.655,12.927" fill="#ff7f00"/>
 <path d="m34.367,160.792c-.446-9.267.704-19.095 2.02-28.276-2.722-.305-9.705-1.653-10.905-4.443-2.07-4.812 3.611.042 6.26-2.625 4.977-5.012 6.021-11.901 6.665-18.378 .233,2.048 1.612,4.689 2.02,6.866 6.047-5.523 3.458-17.27 7.272-24.439-.438,4.523-1.315,9.227-.203,13.331 7.873-13.208 9.883,4.434 8.18,11.815-2.78,12.052 3.13,23.179 7.372,33.831-4.993-4.634-8.979-10.526-11.31-16.966-.048,12.708 7.663,27.814 15.55,37.97-2.371-2.722-17.845-31.364-18.378-31.306-8.179.889.221,24.285.605,27.67-5.878-9.064-7.846.869-15.148-5.05" fill="#ff7f00"/>
 <path d="m111.722,22.443c5.919,3.686 6.377,14.153 5.049,20.197-.083.377-4.045,8.705-3.836,8.685-4.016.39-1.481-24.855-1.213-28.882"/>
 <path d="m111.722,22.443c5.919,3.686 6.377,14.153 5.049,20.197-.083.377-4.045,8.705-3.836,8.685-4.016.39-1.481-24.855-1.213-28.882" fill="none" stroke="#000" stroke-linecap="square" stroke-miterlimit="10" stroke-width=".2"/>
 <path d="m112.13 29.914c4.114 9.83 2.287 23.936-1.313 33.528-3.088 8.228-16.18 32.031-24.237 17.067-4.255-7.902-2.172-14.734-4.141-22.319-0.956-3.684-3.113-6.807-3.836-10.702-1.323-7.125 2.274-20.822 8.685-25.045 5.891-3.881 26.855-2.816 24.842 7.471" fill="#ffccb3"/>
 <path d="m112.13 29.914c4.114 9.83 2.287 23.936-1.313 33.528-3.088 8.228-16.18 32.031-24.237 17.067-4.255-7.902-2.172-14.734-4.141-22.319-0.956-3.684-3.113-6.807-3.836-10.702-1.287-6.929 2.164-18.524 7.169-23.53 5.55-5.55 27.753-5.389 26.561 5.956" fill="none" stroke="#000" stroke-linecap="square" stroke-miterlimit="10" stroke-width=".2"/>
 <path d="m92.738 32.137c-6.49 11.428-5.521 31.256 2.221 42.009-11.72-12.612-19.696-32.142-2.221-42.009" fill="#f2c2b6"/>
 <path d="m85.465,58.596c2.191,6.806 7.215,16.469 14.946,17.369-.019.013-.002.604 0,.605-9.048,2.429-13.476-11.052-14.946-17.974" fill="#d9828d"/>
 <path d="m100.82 75.764c10.731-2.738 11.73-19.688 12.32-28.479 0.968-14.424 1.585-25.92-16.563-26.861 26.645 2.304 15.705 52.354 3.232 47.865 6.426 1.134 7.307 5.493 1.011 7.475" fill="#f2aa9d"/>
 <path d="m107.28,24.261c3.028,6.906 2.56,16.532 2.827,22.418 .325,7.154.372,12.9-3.837,19.996 3.526-9.544-23.168-49.833 1.01-42.414" fill="#f2aa9d"/>
 <path d="m104.25,49.709c2.972-1.183 4.515-2.608 7.675-.607-1.478-.055-2.923.634-4.243,1.01 5.884,3.14-4.51,15.63-3.432-.403" fill="#d9828d"/>
 <path d="m104.856,49.91c2.819-1.094 4.626-2.203 7.675-.605-2.757.898-5.332.889-7.675.605"/>
 <path d="m104.856,71.318c-3.591.664-6.934-.668-8.888-3.633-.126,5.911 5.581,6.973 8.888,3.633" fill="#d9828d"/>
 <path d="m90.919,46.478c11.401-1.405 11.965,3.451 11.917,13.33-4.517-.351-5.756,4.717-6.867,9.694-1.577-5.146 2.315-9.674 1.615-13.331-.165-.862-11.261-.43-2.422-6.663-.905-.792-3.169-2.679-4.243-3.03" fill="#f2aa9d"/>
 <path d="m100.412,50.314c-2.951-1.561-5.147-2.593-8.482-1.213 2.758.899 6.403,1.309 8.482,1.213"/>
 <path d="m100.412,61.22c2.089.188 2.116,1.973 4.241,0-.186.952-.181,2.601-.402,3.436-2.026-.708-2.823-1.925-3.839-3.436" fill="#d9828d"/>
 <path d="m106.672,64.249c-3.475.352-7.239.198-10.501,1.01 3.533,3.442 8.206,3.926 10.501-1.01" fill="#f69"/>
 <path d="m104.856,65.462c-2.029-.188-4.156-.197-6.06,0 2.834,2.244 3.779.416 6.06,0" fill="#fafafa"/>
 <path d="m101.623,61.626c-1.581-.132-1.764-.147 0,0"/>
 <path d="m106.067,46.88c2.207-.022 4.254-.554 6.464,0-.067.201 0,.268.201.201-.013.007-.019.59 0,.607-2.11.007-4.387-.379-6.665-.808"/>
 <path d="m99.806,47.082c-3.136-2.053-6.518-2.129-8.887,0 2.889-.33 6.917-.072 8.887,0"/>
 <path d="m111.32,20.826c-8.985.59-13.412-6.553-23.43-.201-7.457,4.728-15.589,20.715-10.099,29.084 2.477-4.424 4.62-1.465 6.463,1.211-2.446-5.688 2.188-11.981 6.665-14.744 2.954,1.902 7.331,1.242 11.108,0-.563.344-1.271.449-1.816.807 5.36-1.722 10.821-5.533 15.35-.807 .207-5.435-1.788-10.574-4.241-15.35"/>
 <path d="m100.82 76.367c-6.795 25.065-20.796-7.393-17.976-20.599 0.143 6.031 10.294 36.602 17.976 20.599" fill="#e6b8b8"/>
 <path d="m94.757 86.063c-10.161-2.274-12.562-16.146-12.926-24.843-4.245 19.136 17.813 42.702 19.39 16.361-1.139 3.574-3.316 6.772-6.464 8.482" fill="#ffd866"/>
 <path d="m90.515,175.94c16.024.375 16.158-18.764 16.158-30.802 0-11.643 8.103-28.657 5.05-38.677 .182,8.785-8.079,15.333-8.079,23.428 0,9.307 3.37,18.422-1.413,27.065-3.825-6.142-5.117-14.028-6.666-21.006-1.399,9.063 1.367,18.864 5.05,27.166 4.453,10.041-3.282,7.573-10.1,12.826" fill="#ffd866"/>
 <path d="m123.84,130.093c-2.074-16.022 6.44-39.474-5.251-52.512 2.642,4.914 4.9,10.557 4.443,16.158-.889-1.96-3.41-4.659-4.242-6.464-.711,8.656 4.968,14.071 2.626,23.429-1.783,7.126 2.546,14.751.001,21.005 .881-.354 1.818-1.028 2.423-1.616" fill="#ffd866"/>
 <path d="m43.649,76.57c10.673-7.624 26.524-14.757 39.585-16.36-3.422,7.503-1.343,16.123 4.241,22.015-4.035-3.864-6.49-9.055-8.481-14.138h-.404c.417,2.149-.176,5.121 0,7.27-6.122-9.95-10.415,2.199-15.552,6.059-12.795,9.613-10.426-4.393-19.389-4.846" fill="#ff7f00"/>
 <path d="m112.73 71.521c12.207 13.435 6.624 31.469-0.807 46.049 3.554-12.229 1.249-26.163-2.727-38.072-1.887-5.653-3.152-13.832 3.534-7.977" fill="#00a33d"/>
 <path d="m112.73 71.521c12.207 13.435 6.624 31.469-0.807 46.049 3.554-12.229 1.249-26.163-2.727-38.072-1.732-5.187-3.51-14.223 3.533-7.774" fill="none" stroke="#000" stroke-linecap="square" stroke-miterlimit="10" stroke-width=".2"/>
 <path d="m69.107 63.646c-7.043 16.722-9.234 36.032-17.571 52.713-6.221 12.449-11.348 25.291-17.168 37.768-5.049-17.374 9.757-34.67 14.341-50.493 2.281-7.875 3.57-16.014 5.25-24.033 2.496-11.911 3.265-10.857 15.148-15.955" fill="#00a33d"/>
 <path d="m69.107 63.646c-7.043 16.722-9.234 36.032-17.571 52.713-6.221 12.449-11.348 25.291-17.168 37.768-4.854-16.7 8.85-33.226 13.634-48.27 2.563-8.061 3.998-16.457 5.654-24.742 2.471-12.364 2.536-12.628 15.451-17.269" fill="none" stroke="#000" stroke-linecap="square" stroke-miterlimit="10" stroke-width=".2"/>
 <path d="m19.825,215.93c1.662,1.89 5.812,11.28 7.069,6.263 2.242-8.948-11.022-11.133-8.684-2.02 .248-1.105 1.291-3.418 1.615-4.243" fill="#bf7369"/>
 <path d="m75.771 262.18c-1.6 5.424 3.137 8.061 3.434 11.716 0.635 7.82-2.927 15.877-1.615 24.438-1.852-7.807-8.786-30.265-1.819-36.154" fill="#d9828d"/>
 <path d="m49.919 300.56c1.644 6.285 9.122 7.956 14.542 5.857-0.9 11.107-1.041 28.633-15.552 22.822-7.93-3.174-1.828-23.005 1.01-28.679" fill="#eb0000"/>
 <path d="m49.919 300.56c1.644 6.285 9.122 7.956 14.542 5.857-0.693 8.558-1.425 30.351-14.542 23.227-8.424-4.575-3.868-21.575 0-28.881" fill="none" stroke="#000" stroke-linecap="square" stroke-miterlimit="10" stroke-width=".2"/>
 <path d="m49.919,300.555c.561,6.876 8.98,8.122 14.339,6.465-13.853.073-2.816,17.594-10.099,22.82-12.141,8.713-5.348-22.929-4.442-26.658 .751.928 2.38,2.18 3.03,3.029-2.041-1.722-1.918-3.637-2.828-5.656" fill="#bf0000"/>
 <path d="m88.093 322.37c-2.482 7.812-11.691 7.897-17.976 4.848 0.49 8.025 4.478 29.522 15.249 26.458 12.523-3.564 5.053-23.441 2.727-31.306" fill="#eb0000"/>
 <path d="m88.093 322.37c-2.482 7.812-11.691 7.897-17.976 4.848 0.49 8.025 4.478 29.522 15.249 26.458 12.426-3.535 5.194-23.307 2.727-31.104" fill="none" stroke="#000" stroke-linecap="square" stroke-miterlimit="10" stroke-width=".2"/>
 <path d="m74.156,328.83c3.796,1.202 7.759.798 10.907-1.613-.521,6.338 11.103,32.31-2.323,30.396-3.706-.528-5.599-24.62-11.209-29.387l2.625.604" fill="#bf0000"/>
 <path d="m44.87,323.58c-3.521,4.27-2.647,9.659-3.434,14.946-1.311,8.816-4.315,8.438 4.443,13.128 5.773,3.091 23.779,11.078 29.588,8.584 12.145-5.215-10.204-17.888-12.825-23.53-.834-1.797.12-9.52-2.726-8.887-5.38,1.197-11.323-.095-15.046-4.241" fill="#662933"/>
 <path d="m44.87,323.58c-3.521,4.27-2.647,9.659-3.434,14.946-1.311,8.816-4.315,8.438 4.443,13.128 5.21,2.79 23.745,11.055 28.881,8.888 13.909-5.868-9.094-16.702-11.714-22.824-1.074-2.51-.19-8.485-2.221-10.099-3.303-2.623-11.087,1.2-15.755-3.838" fill="none" stroke="#000" stroke-linecap="square" stroke-miterlimit="10" stroke-width=".2"/>
 <path d="m78.396,357.513c-4.011,5.695-35.364-3.01-38.576-8.888-.786-1.438 1.919-20.493 3.03-21.611 3.366-3.388 10.889,2.949 17.773,1.01-2.949,2.198-10.529.114-11.714,2.425-2.663,5.192 4.259,7.597 7.27,10.906 3.845,4.228 4.806,6.904 9.696,9.692 4.624,2.636 10.917,1.346 12.521,6.466" fill="#1f1f1f"/>
 <path d="m38.61 345.6c-1.095 8.677 34.34 19.746 40.191 13.53-8.735 1.495-35.205-4.974-40.191-13.53"/>
 <path d="m38.61 345.6c-1.095 8.677 34.34 19.746 40.191 13.53-8.893 1.521-34.681-4.902-40.191-13.329" fill="none" stroke="#000" stroke-linecap="square" stroke-miterlimit="10" stroke-width=".2"/>
 <path d="m43.456,349.434c14.185-1.984 13.185.631 24.035,8.886-8.072-2.758-16.041-5.969-24.035-8.886"/>
 <path d="m56.383,336.507c-.214-3.797-.772-6.369-4.243-8.28 1.19,2.592 3.071,6.495 4.243,8.28"/>
 <path d="m56.383,336.507c-.214-3.797-.772-6.369-4.243-8.28 1.171,2.837 2.757,5.939 4.444,8.28" fill="none" stroke="#000" stroke-linecap="square" stroke-miterlimit="10" stroke-width=".2"/>
 <path d="m121.013,40.013c6.992-4.234 10.493-17.928 6.665-25.246-5.504-10.521-21.48-7.561-31.507-8.886 6.714,2.806 16.452.767 22.418,3.836 10.641,5.475 11.434,23.078 2.424,30.296" fill="#2ddb6d"/>
 <path d="m8.92 122.82c3.816 5.84 2.125 18.337-4.243 21.814 7.297-1.928 9.176-16.547 4.243-21.814"/>
 <path d="m6.294,125.043c3.838,4.853.595,13.433-5.049,14.744 6.777,1.58 10.808-11.03 5.049-14.744"/>
 <path d="m5.486,129.688c-.845,3.723-.85,6.531-4.645,6.26 4.344,1.739 5.253-2.27 4.645-6.26"/>
 <path d="m92.738 343.58c-3.923 4.534-11.335 5.703-16.966 4.039 0.403 12.316 3.389 48.699 25.449 40.193 12.268-4.73 3.141-12.251-1.01-20.4-3.836-7.534-3.928-16.662-7.473-23.832" fill="#662933"/>
 <path d="m92.738 343.58c-3.923 4.534-11.335 5.703-16.966 4.039 0.403 12.316 3.389 48.699 25.449 40.193 12.268-4.73 3.141-12.251-1.01-20.4-3.836-7.534-3.928-16.662-7.473-23.832" fill="none" stroke="#000" stroke-linecap="square" stroke-miterlimit="10" stroke-width=".2"/>
 <path d="m96.574,388.412c-10.572,2.113-17.885-14.562-19.187-22.619-.344-2.129-2.112-16.698-1.211-17.775 .89-1.063 13.373-1.016 16.763-3.836-3.09,3.875-8.231,5.248-12.724,6.463 19.289,7.449-1.741,33.398 25.448,34.737-2.725,1.459-6.316,2.621-9.089,3.03" fill="#1f1f1f"/>
 <path d="m78.396,373.063c.982,4.012 3.872,9.451 7.272,12.319 4.747,4.005 22.238,7.989 22.217-1.412-13.843,9.792-21.569-.408-29.489-10.907"/>
 <path d="m78.396,373.063c.982,4.012 3.872,9.451 7.272,12.319 4.747,4.005 22.238,7.989 22.217-1.412-13.622,9.636-21.569-.104-29.286-10.706" fill="none" stroke="#000" stroke-linecap="square" stroke-miterlimit="10" stroke-width=".2"/>
 <path d="m56.383,338.325c2.027-.311 4.406.274 6.463.402l-2.424,3.839 4.444.402-1.819,2.426 4.241.402-2.221,1.211 1.01-2.623c-1.414-.202-2.827-.405-4.241-.607l1.412-3.03-3.635-.605 1.615-3.434-4.645,1.818" fill="none" stroke="#000" stroke-linecap="square" stroke-miterlimit="10" stroke-width=".7"/>
 <path d="m82.84 348.22c3.117 2.25 5.228 5.573 6.463 9.292-2.646-3.531-8.026-7.928-6.463-9.292"/>
 <path d="m82.84 348.22c3.117 2.25 5.228 5.573 6.463 9.292-2.475-3.301-8.251-7.822-6.26-9.089" fill="none" stroke="#000" stroke-linecap="square" stroke-miterlimit="10" stroke-width=".2"/>
 <path d="m89.909,358.925c2.191.102 4.524,1.098 6.665,1.617-1.714.896-2.934,2.731-4.645,3.633 1.888.001 3.765,1.156 5.654,1.214-1.556,1.274-2.427,3.449-4.039,4.645h5.252l-3.635,3.838 5.25-1.01c-1.872.001-3.79-.967-5.654-1.211l3.029-4.039c-1.683-.202-3.366-.405-5.049-.607l4.039-3.839c-1.877-.287-3.577-1.729-5.454-2.02l3.838-3.432-5.049,1.211" fill="none" stroke="#000" stroke-linecap="square" stroke-miterlimit="10" stroke-width=".7"/>
</svg>
